<?xml version="1.0" encoding="UTF-8" standalone="no"?>
<!-- Created with Inkscape (http://www.inkscape.org/) -->
<svg
   xmlns:svg="http://www.w3.org/2000/svg"
   xmlns="http://www.w3.org/2000/svg"
   version="1.0"
   width="729.92126"
   height="482.03149"
   id="svg1943">
  <defs
     id="defs1945" />
  <g
     transform="translate(-997.8701,-402.3998)"
     id="layer1">
    <g
       transform="translate(10.62994,15.95373)"
       id="g20089">
      <path
         d="M 1170.5814,426.79531 C 1189.5943,419.88153 1208.4744,415.36103 1226.2903,413.10073 C 1226.9554,412.9678 1227.0881,413.49961 1226.4235,413.63254 C 1215.6542,417.22245 1204.6184,421.477 1193.7163,426.52941 C 1119.9251,460.96523 1074.8523,519.46641 1092.4027,557.09322 C 1102.2414,578.10046 1129.6306,588.33815 1164.9974,587.14156 C 1165.7952,587.14156 1165.7952,587.80634 1165.1301,587.80634 C 1113.144,593.78939 1070.1988,580.36076 1059.2963,550.44539 C 1044.5381,509.76052 1094.5303,454.45043 1170.5814,426.79531"
         style="fill:#0171ae;fill-rule:nonzero;stroke:none"
         id="path10156" />
      <path
         d="M 1165.662,562.01265 C 1149.9733,552.43974 1147.3142,531.03366 1166.0612,503.37855 C 1166.4598,502.84679 1166.8585,503.11264 1166.5926,503.64445 C 1160.8758,519.59933 1163.9335,539.27696 1180.4201,547.2544 C 1207.4106,560.2842 1254.6105,546.05776 1289.9768,519.86524 C 1290.5087,519.46641 1290.9074,519.86524 1290.376,520.39709 C 1241.8463,568.39462 1185.6055,574.11176 1165.662,562.01265"
         style="fill:#6d6e71;fill-rule:nonzero;stroke:none"
         id="path10165" />
      <path
         d="M 1275.2186,564.8047 C 1256.073,571.71853 1237.1929,576.23904 1219.3765,578.63226 C 1218.7119,578.63226 1218.5791,578.10046 1219.2438,577.96753 C 1230.0131,574.51059 1241.0489,570.12302 1252.0842,565.07066 C 1325.8755,530.63479 1370.9477,472.26664 1353.3973,434.63983 C 1343.5586,413.49961 1316.0367,403.26192 1280.6699,404.45856 C 1280.0053,404.45856 1280.0053,403.9267 1280.6699,403.79372 C 1332.656,397.81068 1375.4685,411.23936 1386.371,441.15468 C 1401.2619,481.83955 1351.137,537.14969 1275.2186,564.8047"
         style="fill:#6d6e71;fill-rule:nonzero;stroke:none"
         id="path10174" />
      <path
         d="M 1280.138,429.58742 C 1295.8273,439.16033 1298.4863,460.5664 1279.7393,488.35445 C 1279.3402,488.88625 1278.9415,488.62035 1279.0742,487.95557 C 1284.9247,472.00073 1281.7337,452.32311 1265.2472,444.34562 C 1238.2567,431.31582 1191.0568,445.54225 1155.6905,471.73478 C 1155.2913,472.13371 1154.8926,471.73478 1155.2913,471.33595 C 1203.8205,423.33842 1260.1945,417.48836 1280.138,429.58742"
         style="fill:#0171ae;fill-rule:nonzero;stroke:none"
         id="path10178" />
      <path
         d="M 1125.3758,831.25067 C 1125.3758,837.89855 1125.3758,843.48272 1125.1104,846.4078 C 1124.8444,848.40215 1124.1793,849.99762 1122.1849,850.39655 C 1121.653,850.52947 1121.3875,850.52947 1121.3875,850.92835 C 1121.3875,851.32723 1121.653,851.46021 1122.1849,851.46021 C 1124.3125,851.46021 1138.1401,851.46021 1148.6435,851.46021 C 1150.106,851.46021 1150.3719,851.06128 1150.6379,849.59879 C 1151.0371,848.00332 1151.5685,843.48272 1151.5685,842.95091 C 1151.5685,842.41905 1151.5685,841.88725 1151.1698,841.88725 C 1150.7711,841.88725 1150.6379,842.15315 1150.5052,842.95091 C 1150.106,845.74307 1149.1754,847.20556 1147.4469,847.87029 C 1145.5853,848.66805 1143.1922,848.93395 1140.6659,848.93395 C 1133.8853,848.93395 1131.2263,848.80103 1131.2263,843.21681 C 1131.2263,841.75432 1131.2263,833.6439 1131.2263,831.25067 L 1131.2263,825.1347 C 1131.2263,824.86875 1131.4923,824.60285 1131.7582,824.60285 C 1132.9548,824.60285 1141.1978,824.73577 1143.0595,825.00168 C 1145.8512,825.26763 1146.5164,826.46427 1146.7823,827.39496 C 1147.0483,828.32569 1147.0483,828.99042 1147.0483,829.78818 C 1147.0483,830.05409 1147.181,830.31999 1147.4469,830.31999 C 1147.9789,830.31999 1147.9789,829.65521 1147.9789,828.99042 C 1147.9789,828.59159 1148.1116,825.93241 1148.2448,824.60285 C 1148.5108,822.3426 1148.7767,821.14596 1148.7767,820.74713 C 1148.7767,820.21527 1148.6435,820.0823 1148.5108,820.0823 C 1148.2448,820.0823 1147.9789,820.48118 1147.4469,821.01303 C 1146.7823,821.67776 1145.8512,821.81079 1144.1228,821.94372 C 1142.5276,822.07669 1132.6888,822.07669 1131.7582,822.07669 C 1131.359,822.07669 1131.2263,821.94372 1131.2263,821.41186 L 1131.2263,802.26609 C 1131.2263,801.73423 1131.4923,801.46833 1131.7582,801.46833 C 1132.4229,801.46833 1141.4638,801.60126 1142.6603,801.73423 C 1146.3831,802.13311 1147.0483,802.93082 1147.5797,804.12751 C 1147.9789,804.92522 1147.9789,806.12181 1147.9789,806.65367 C 1147.9789,807.18547 1148.1116,807.45138 1148.5108,807.45138 C 1148.7767,807.45138 1148.9094,807.0525 1149.0427,806.78659 C 1149.1754,805.85591 1149.3081,802.7979 1149.4413,802.13311 C 1149.5741,800.13877 1149.9733,799.34101 1149.9733,798.8092 C 1149.9733,798.54325 1149.84,798.27734 1149.7073,798.27734 C 1149.3081,798.27734 1149.3081,798.54325 1148.2448,798.67627 C 1147.7129,798.8092 1146.7823,798.8092 1145.7185,798.8092 C 1143.9901,798.8092 1125.3758,798.8092 1122.1849,798.8092 C 1121.653,798.8092 1121.3875,798.94218 1121.3875,799.20803 C 1121.3875,799.60691 1121.7862,799.87286 1122.3181,799.87286 C 1124.5785,800.40467 1125.1104,801.60126 1125.3758,803.99449 C 1125.3758,806.25474 1125.3758,808.11616 1125.3758,819.01863 L 1125.3758,831.25067"
         style="fill:#211d1e;fill-rule:nonzero;stroke:none"
         id="path10182" />
      <path
         d="M 1239.7192,801.86716 L 1247.0316,802.00019 C 1253.8127,802.13311 1255.4079,803.72858 1255.6738,805.72293 L 1255.6738,806.52064 C 1255.8071,807.45138 1255.9398,807.71733 1256.339,807.71733 C 1256.6049,807.71733 1256.7377,807.45138 1256.7377,806.78659 C 1256.7377,805.98883 1257.0036,801.20243 1257.0036,799.20803 C 1257.0036,798.67627 1257.0036,798.27734 1256.6049,798.27734 C 1256.073,798.27734 1254.2114,799.0751 1249.6912,799.0751 L 1226.2903,799.0751 C 1225.4929,799.0751 1222.8334,798.8092 1220.8395,798.67627 C 1218.9778,798.54325 1218.18,797.87852 1217.7813,797.87852 C 1217.5153,797.87852 1217.2494,798.67627 1217.1167,799.20803 C 1216.8507,799.73984 1215.5209,805.72293 1215.5209,806.38776 C 1215.5209,806.78659 1215.6542,807.0525 1215.9196,807.0525 C 1216.1856,807.0525 1216.3188,806.91957 1216.5847,806.38776 C 1216.7175,805.85591 1216.9834,805.3241 1217.7813,804.12751 C 1218.8451,802.53199 1220.5735,802.00019 1224.8278,802.00019 L 1233.8692,801.86716 L 1233.8692,831.25067 C 1233.8692,837.89855 1233.8692,843.48272 1233.47,846.4078 C 1233.2041,848.40215 1232.8054,849.99762 1230.4123,850.39655 C 1230.0131,850.52947 1229.6144,850.66245 1229.6144,850.92835 C 1229.6144,851.32723 1230.0131,851.46021 1230.4123,851.46021 C 1232.2735,851.46021 1241.5803,851.46021 1243.0433,851.46021 C 1243.442,851.46021 1243.708,851.1943 1243.708,850.92835 C 1243.708,850.52947 1243.442,850.39655 1243.0433,850.26357 C 1240.9157,849.99762 1240.2511,848.40215 1239.9851,846.4078 C 1239.7192,843.48272 1239.7192,837.89855 1239.7192,831.25067 L 1239.7192,801.86716"
         style="fill:#211d1e;fill-rule:nonzero;stroke:none"
         id="path10186" />
      <path
         d="M 1328.8004,819.01863 C 1328.8004,808.11616 1328.8004,806.25474 1328.9332,803.99449 C 1329.0664,801.46833 1329.8643,800.00579 1332.3901,799.87286 C 1332.656,799.87286 1332.922,799.60691 1332.922,799.34101 C 1332.922,798.94218 1332.656,798.8092 1332.2573,798.8092 C 1330.6616,798.8092 1322.6845,798.8092 1319.4936,798.8092 C 1319.2276,798.8092 1318.9617,798.94218 1318.9617,799.34101 C 1318.9617,799.60691 1319.2276,799.87286 1319.6263,799.87286 C 1321.3548,800.13877 1322.6845,801.60126 1322.8172,803.99449 C 1322.9505,806.25474 1322.9505,808.11616 1322.9505,819.01863 L 1322.9505,831.25067 C 1322.9505,837.89855 1322.9505,843.48272 1322.6845,846.4078 C 1322.4186,848.40215 1321.8867,850.13064 1319.4936,850.39655 C 1319.2276,850.52947 1318.9617,850.66245 1318.9617,850.92835 C 1318.9617,851.32723 1319.0944,851.46021 1319.6263,851.46021 C 1320.9561,851.46021 1333.7198,851.46021 1343.6918,851.46021 C 1347.4142,851.46021 1347.6801,851.1943 1348.0793,849.59879 C 1348.7439,847.60439 1349.1426,843.34979 1349.1426,842.55208 C 1349.1426,841.88725 1349.1426,841.62134 1348.7439,841.62134 C 1348.3452,841.62134 1348.212,841.88725 1348.0793,842.41905 C 1347.9461,843.74867 1347.2814,845.61004 1346.3508,846.6737 C 1344.6224,848.66805 1341.9634,848.80103 1338.3732,848.80103 C 1332.922,848.80103 1331.4595,848.53512 1330.3957,847.33849 C 1329.0664,846.1419 1328.8004,841.62134 1328.8004,831.38365 L 1328.8004,819.01863"
         style="fill:#211d1e;fill-rule:nonzero;stroke:none"
         id="path10190" />
      <path
         d="M 1371.6124,852.52387 C 1380.6538,852.52387 1388.0995,847.07263 1388.0995,837.63265 C 1388.0995,832.44731 1386.2378,827.129 1375.4685,820.3482 C 1368.6874,816.0936 1364.9646,812.90261 1364.9646,807.98323 C 1364.9646,803.32975 1368.5547,800.00579 1373.3408,800.00579 C 1379.324,800.00579 1382.6482,803.06385 1383.5788,807.85026 C 1383.7115,808.38206 1383.7115,808.78099 1384.1107,808.78099 C 1384.5094,808.78099 1384.6426,808.24913 1384.6426,807.18547 C 1384.3766,802.39902 1384.6426,800.13877 1384.6426,799.73984 C 1384.6426,799.47393 1384.5094,799.34101 1383.8447,799.34101 C 1383.3128,799.34101 1382.7809,799.34101 1381.4511,799.0751 C 1379.7227,798.67627 1376.7977,797.74554 1374.1387,797.74554 C 1365.3637,797.74554 1360.4444,802.93082 1360.4444,810.37646 C 1360.4444,816.62546 1364.1672,821.01303 1372.8094,826.5972 C 1379.0581,830.58594 1383.0469,834.57464 1383.0469,840.02588 C 1383.0469,845.34414 1379.59,849.86469 1372.9421,849.86469 C 1366.959,849.86469 1362.5715,847.20556 1361.6409,842.28613 C 1361.3749,841.35539 1361.3749,840.42476 1361.3749,839.75997 C 1361.3749,839.22817 1361.2417,838.96221 1360.843,838.96221 C 1360.4444,839.09514 1360.3111,839.36109 1360.3111,840.1588 C 1360.3111,841.22246 1360.0452,844.01457 1360.1784,847.60439 C 1360.3111,849.46581 1360.4444,849.73171 1361.3749,850.13064 C 1363.2361,851.1943 1366.959,852.52387 1371.6124,852.52387"
         style="fill:#211d1e;fill-rule:nonzero;stroke:none"
         id="path10194" />
      <path
         d="M 1455.3756,799.20803 C 1455.3756,798.94218 1454.9764,798.8092 1454.3118,798.8092 C 1453.5139,798.8092 1453.248,798.94218 1453.1152,799.20803 L 1434.1024,842.28613 L 1414.1589,799.20803 C 1414.0256,798.94218 1413.7602,798.8092 1412.9623,798.8092 C 1412.1645,798.8092 1411.8985,798.94218 1411.8985,799.20803 L 1406.8464,844.54638 C 1406.5805,847.20556 1406.1813,850.26357 1402.7244,850.52947 C 1402.3257,850.52947 1402.0598,850.79537 1402.0598,851.06128 C 1402.0598,851.32723 1402.3257,851.46021 1402.7244,851.46021 C 1404.0542,851.46021 1412.2972,851.46021 1414.0256,851.46021 C 1414.2916,851.46021 1414.6908,851.32723 1414.6908,850.92835 C 1414.6908,850.66245 1414.4248,850.39655 1414.0256,850.39655 C 1410.9679,849.99762 1410.702,848.66805 1411.1007,844.94531 L 1413.8929,812.63671 L 1414.1589,812.63671 C 1414.9567,814.49813 1430.5127,848.13624 1430.5127,848.13624 C 1431.7093,850.66245 1432.2412,851.32723 1432.7726,851.32723 C 1433.3045,851.32723 1433.5704,850.66245 1435.0329,847.60439 L 1451.1208,811.44007 L 1451.3868,811.44007 L 1454.3118,844.01457 C 1454.711,848.40215 1453.9131,849.73171 1451.9187,850.26357 C 1451.5195,850.39655 1450.9881,850.52947 1450.9881,850.92835 C 1450.9881,851.32723 1451.3868,851.46021 1452.0514,851.46021 C 1454.3118,851.46021 1462.6881,851.46021 1464.1505,851.46021 C 1464.6825,851.46021 1465.2144,851.32723 1465.2144,850.92835 C 1465.2144,850.52947 1464.8157,850.39655 1464.2838,850.26357 C 1460.8269,849.46581 1460.4277,844.94531 1460.1618,842.41905 L 1455.3756,799.20803"
         style="fill:#211d1e;fill-rule:nonzero;stroke:none"
         id="path10198" />
      <path
         d="M 1538.341,808.51504 L 1572.2447,850.66245 C 1572.6434,851.1943 1572.9094,851.46021 1573.7072,851.46021 C 1574.3718,851.46021 1574.3718,851.32723 1574.3718,850.66245 L 1574.5051,806.25474 C 1574.6378,801.86716 1575.1697,800.13877 1577.962,799.73984 C 1578.3606,799.73984 1578.6266,799.60691 1578.6266,799.34101 C 1578.6266,798.94218 1578.4939,798.8092 1578.0947,798.8092 C 1575.9676,798.8092 1568.6551,798.8092 1567.1926,798.8092 C 1566.5275,798.8092 1566.2615,798.94218 1566.2615,799.34101 C 1566.2615,799.60691 1566.5275,799.73984 1567.0594,799.87286 C 1569.8516,800.5376 1570.3835,802.26609 1570.5163,806.78659 L 1571.1809,840.1588 L 1538.6064,799.20803 C 1538.2077,798.8092 1537.809,798.8092 1536.7452,798.8092 C 1535.5487,798.8092 1535.1495,798.94218 1535.1495,799.20803 L 1535.1495,841.22246 C 1535.1495,847.73736 1534.6181,849.99762 1531.6926,850.39655 C 1531.1612,850.52947 1531.028,850.66245 1531.028,851.06128 C 1531.028,851.32723 1531.2939,851.46021 1531.6926,851.46021 C 1533.953,851.46021 1540.3349,851.46021 1542.4625,851.46021 C 1543.1271,851.46021 1543.3931,851.32723 1543.3931,850.92835 C 1543.3931,850.66245 1543.1271,850.39655 1542.7284,850.39655 C 1539.9362,849.59879 1539.4043,847.73736 1539.2715,842.02022 L 1538.341,808.51504"
         style="fill:#211d1e;fill-rule:nonzero;stroke:none"
         id="path10202" />
      <path
         d="M 1273.2242,831.25067 C 1273.2242,837.89855 1273.2242,843.48272 1272.8256,846.4078 C 1272.5596,848.40215 1271.895,849.99762 1269.9006,850.39655 C 1269.3687,850.52947 1269.1027,850.52947 1269.1027,850.92835 C 1269.1027,851.32723 1269.3687,851.46021 1269.9006,851.46021 C 1272.0277,851.46021 1285.8553,851.46021 1296.4919,851.46021 C 1297.9544,851.46021 1298.2203,851.06128 1298.4863,849.59879 C 1298.7522,848.00332 1299.2841,843.48272 1299.2841,842.95091 C 1299.2841,842.41905 1299.2841,841.88725 1298.885,841.88725 C 1298.619,841.88725 1298.4863,842.15315 1298.3531,842.95091 C 1297.8212,845.74307 1297.0238,847.20556 1295.1621,847.87029 C 1293.301,848.66805 1290.9074,848.93395 1288.5143,848.93395 C 1281.6005,848.93395 1279.0742,848.80103 1279.0742,843.21681 C 1279.0742,841.75432 1279.0742,833.6439 1279.0742,831.25067 L 1279.0742,825.1347 C 1279.0742,824.86875 1279.2074,824.60285 1279.4734,824.60285 C 1280.6699,824.60285 1288.9135,824.73577 1290.7747,825.00168 C 1293.5669,825.26763 1294.2315,826.46427 1294.4975,827.39496 C 1294.7634,828.32569 1294.7634,828.99042 1294.7634,829.78818 C 1294.7634,830.05409 1294.8962,830.31999 1295.2954,830.31999 C 1295.694,830.31999 1295.694,829.65521 1295.694,828.99042 C 1295.694,828.59159 1295.8273,825.93241 1295.96,824.60285 C 1296.2259,822.3426 1296.4919,821.14596 1296.4919,820.74713 C 1296.4919,820.21527 1296.3587,820.0823 1296.2259,820.0823 C 1295.96,820.0823 1295.694,820.48118 1295.1621,821.01303 C 1294.4975,821.67776 1293.5669,821.81079 1291.8385,821.94372 C 1290.2427,822.07669 1280.404,822.07669 1279.4734,822.07669 C 1279.0742,822.07669 1279.0742,821.94372 1279.0742,821.41186 L 1279.0742,802.26609 C 1279.0742,801.73423 1279.2074,801.46833 1279.4734,801.46833 C 1280.2713,801.46833 1289.1789,801.60126 1290.376,801.73423 C 1294.0988,802.13311 1294.7634,802.93082 1295.2954,804.12751 C 1295.694,804.92522 1295.694,806.12181 1295.694,806.65367 C 1295.694,807.18547 1295.8273,807.45138 1296.2259,807.45138 C 1296.4919,807.45138 1296.6246,807.0525 1296.7578,806.78659 C 1296.8906,805.85591 1297.0238,802.7979 1297.1565,802.13311 C 1297.2898,800.13877 1297.6884,799.34101 1297.6884,798.8092 C 1297.6884,798.54325 1297.5557,798.27734 1297.4225,798.27734 C 1297.0238,798.27734 1297.0238,798.54325 1296.0927,798.67627 C 1295.4281,798.8092 1294.6302,798.8092 1293.4337,798.8092 C 1291.7052,798.8092 1273.0915,798.8092 1269.9006,798.8092 C 1269.3687,798.8092 1269.1027,798.94218 1269.1027,799.20803 C 1269.1027,799.60691 1269.5014,799.87286 1270.0333,799.87286 C 1272.2937,800.40467 1272.9583,801.60126 1273.0915,803.99449 C 1273.2242,806.25474 1273.2242,808.11616 1273.2242,819.01863 L 1273.2242,831.25067"
         style="fill:#211d1e;fill-rule:nonzero;stroke:none"
         id="path10206" />
      <path
         d="M 1185.8714,825.66651 L 1200.0982,846.54078 C 1203.0231,850.79537 1207.1447,851.46021 1211.0002,851.46021 L 1213.6598,851.46021 C 1214.0584,851.46021 1214.4571,851.32723 1214.4571,850.92835 C 1214.4571,850.52947 1214.0584,850.39655 1213.6598,850.26357 C 1211.3994,849.73171 1209.1391,848.93395 1206.0808,844.81233 L 1192.2533,825.53353 C 1199.8322,823.40621 1203.8205,817.95497 1203.8205,812.1049 C 1203.8205,806.65367 1201.5606,803.86156 1199.0343,801.86716 C 1195.5775,798.94218 1190.6581,798.8092 1186.2706,798.8092 C 1184.143,798.8092 1173.2404,798.8092 1171.2465,798.8092 C 1170.8473,798.8092 1170.4486,798.94218 1170.4486,799.34101 C 1170.4486,799.60691 1170.8473,799.87286 1171.3792,799.87286 C 1173.7723,800.40467 1174.3042,801.60126 1174.4374,803.99449 C 1174.5702,806.25474 1174.5702,808.11616 1174.5702,819.01863 L 1174.5702,831.25067 C 1174.5702,837.89855 1174.5702,843.48272 1174.1715,846.4078 C 1173.9055,848.40215 1173.6396,849.86469 1171.2465,850.39655 C 1170.5814,850.52947 1170.4486,850.66245 1170.4486,850.92835 C 1170.4486,851.1943 1170.5814,851.46021 1171.1133,851.46021 C 1172.443,851.46021 1180.5534,851.46021 1183.4783,851.46021 C 1183.877,851.46021 1184.2762,851.32723 1184.2762,850.92835 C 1184.2762,850.52947 1183.877,850.39655 1183.4783,850.39655 C 1181.218,849.86469 1180.6861,848.40215 1180.5534,846.4078 C 1180.1542,843.48272 1180.1542,837.63265 1180.1542,831.6496 L 1180.1542,802.26609 C 1180.1542,801.86716 1180.4201,801.60126 1180.6861,801.46833 C 1181.3512,801.20243 1183.6111,801.06945 1185.7387,801.06945 C 1193.1844,801.06945 1197.8378,805.59 1197.8378,811.97188 C 1197.8378,822.07669 1190.1262,824.20397 1186.4033,824.33695 C 1185.7387,824.46987 1185.4727,825.1347 1185.8714,825.66651"
         style="fill:#211d1e;fill-rule:nonzero;stroke:none"
         id="path10210" />
      <path
         d="M 1080.1708,822.47552 C 1080.1708,823.00738 1080.4368,823.27328 1080.8355,823.27328 C 1083.4945,823.40621 1086.2867,824.20397 1088.5471,825.40061 C 1094.2643,828.59159 1096.3915,833.77693 1096.1255,839.49407 C 1095.7268,847.60439 1088.4139,849.46581 1084.8243,849.46581 C 1082.4312,849.46581 1078.9743,849.59879 1077.1126,848.66805 C 1074.8523,847.60439 1074.8523,846.4078 1074.7195,842.95091 C 1074.5863,842.02022 1074.5863,833.24507 1074.5863,827.92676 L 1074.5863,801.60126 C 1074.5863,801.20243 1074.8523,801.06945 1075.3842,800.8035 C 1076.5807,800.67057 1080.1708,800.5376 1080.9682,800.5376 C 1088.9458,800.5376 1092.1367,805.45703 1092.1367,810.37646 C 1092.1367,817.68907 1088.1479,821.14596 1080.8355,821.81079 C 1080.4368,821.81079 1080.1708,822.07669 1080.1708,822.47552 z M 1069.0023,831.25067 C 1069.0023,837.89855 1069.0023,843.74867 1068.7363,846.6737 C 1068.4704,848.66805 1068.2044,850.26357 1065.5454,850.66245 C 1065.2795,850.66245 1064.8808,850.92835 1064.8808,851.1943 C 1064.8808,851.59313 1065.2795,851.72611 1065.5454,851.72611 L 1083.6277,851.72611 C 1096.2582,851.72611 1102.1087,844.41345 1102.1087,836.56899 C 1102.1087,826.73017 1093.3333,822.6085 1088.0152,821.41186 C 1091.2061,820.48118 1097.9867,817.29019 1097.9867,809.84465 C 1097.9867,803.86156 1093.4665,798.54325 1081.766,798.54325 L 1065.6781,798.54325 C 1065.2795,798.54325 1064.8808,798.67627 1064.8808,799.0751 C 1064.8808,799.34101 1065.2795,799.60691 1065.6781,799.60691 C 1067.9385,800.13877 1068.7363,801.33536 1068.8691,803.72858 C 1069.0023,805.98883 1069.0023,808.11616 1069.0023,819.01863 L 1069.0023,831.25067"
         style="fill:#211d1e;fill-rule:evenodd;stroke:none"
         id="path10214" />
      <path
         d="M 1479.1746,843.74867 C 1477.9781,847.33849 1476.5156,849.99762 1473.9893,850.39655 C 1473.4579,850.39655 1473.0587,850.52947 1473.0587,850.92835 C 1473.0587,851.32723 1473.4579,851.46021 1473.9893,851.46021 L 1485.0251,851.46021 C 1485.4238,851.46021 1485.6897,851.1943 1485.6897,850.92835 C 1485.6897,850.66245 1485.2911,850.52947 1485.0251,850.52947 C 1483.5626,850.26357 1482.2329,849.59879 1482.2329,848.13624 C 1482.2329,846.93966 1482.4988,846.27487 1483.2967,843.74867 L 1487.5509,831.51658 C 1487.6841,831.11775 1487.8169,830.98477 1488.2161,830.98477 L 1503.2401,830.98477 C 1503.5061,830.98477 1503.6388,831.11775 1503.7721,831.38365 L 1508.8242,844.41345 C 1510.2867,848.26922 1509.7547,849.73171 1507.7604,850.39655 C 1507.3617,850.52947 1507.0957,850.66245 1507.0957,851.06128 C 1507.0957,851.32723 1507.3617,851.46021 1507.7604,851.46021 L 1521.3225,851.46021 C 1521.8539,851.46021 1521.9871,851.32723 1521.9871,851.06128 C 1521.9871,850.66245 1521.7211,850.52947 1521.3225,850.52947 C 1518.131,849.73171 1516.8018,848.53512 1514.4087,842.28613 L 1497.6556,799.20803 C 1497.5229,798.94218 1497.3902,798.8092 1496.5923,798.8092 C 1495.7945,798.8092 1495.6617,798.94218 1495.5285,799.20803 L 1479.1746,843.74867 z M 1489.0134,828.45862 C 1488.748,828.45862 1488.6147,828.32569 1488.748,827.92676 L 1494.8639,809.17982 C 1495.2626,808.11616 1495.6617,808.11616 1495.9272,809.17982 L 1502.575,827.92676 C 1502.7082,828.19266 1502.7082,828.45862 1502.3096,828.45862 L 1489.0134,828.45862"
         style="fill:#211d1e;fill-rule:evenodd;stroke:none"
         id="path10218" />
      <path
         d="M 1600.0326,808.51504 L 1633.9368,850.66245 C 1634.3355,851.1943 1634.6015,851.46021 1635.3993,851.46021 C 1636.064,851.46021 1636.064,851.32723 1636.1972,850.66245 L 1636.3299,806.25474 C 1636.3299,802.00019 1636.8618,800.13877 1639.6541,799.73984 C 1640.186,799.73984 1640.3187,799.60691 1640.3187,799.34101 C 1640.3187,798.94218 1640.186,798.8092 1639.7868,798.8092 C 1637.6597,798.8092 1630.3472,798.8092 1628.8847,798.8092 C 1628.2196,798.8092 1627.9536,798.94218 1627.9536,799.34101 C 1627.9536,799.60691 1628.2196,799.73984 1628.7515,799.87286 C 1631.5438,800.5376 1632.0757,802.26609 1632.2084,806.78659 L 1632.873,840.1588 L 1600.2985,799.20803 C 1599.8998,798.8092 1599.5012,798.8092 1598.4373,798.8092 C 1597.2408,798.8092 1596.8416,798.94218 1596.8416,799.20803 L 1596.8416,841.22246 C 1596.8416,847.73736 1596.3102,849.99762 1593.3847,850.39655 C 1592.8533,850.52947 1592.7201,850.66245 1592.7201,851.06128 C 1592.7201,851.32723 1592.9861,851.46021 1593.3847,851.46021 C 1595.6451,851.46021 1602.027,851.46021 1604.1546,851.46021 C 1604.8192,851.46021 1605.2179,851.32723 1605.2179,850.92835 C 1605.2179,850.66245 1604.8192,850.39655 1604.4205,850.39655 C 1601.6283,849.59879 1601.0964,847.73736 1600.9637,842.02022 L 1600.0326,808.51504"
         style="fill:#211d1e;fill-rule:nonzero;stroke:none"
         id="path10222" />
      <path
         d="M 1262.0557,637.66519 C 1254.0786,637.66519 1247.4308,638.72886 1238.9213,646.57332 L 1236.661,637.66519 L 1218.4459,637.66519 L 1218.4459,721.95997 L 1239.9851,721.95997 L 1239.9851,663.19294 C 1245.0372,658.53946 1251.0204,657.7417 1255.9398,657.7417 C 1257.6682,657.7417 1259.7959,658.00765 1262.0557,658.67244 L 1262.0557,637.66519"
         style="fill:#0171ae;fill-rule:nonzero;stroke:none"
         id="path10226" />
      <path
         d="M 1352.2008,637.66519 L 1330.1297,637.66519 L 1309.7875,692.31055 L 1290.2427,637.66519 L 1266.5764,637.66519 L 1300.8794,721.95997 L 1317.1,721.95997 L 1352.2008,637.66519"
         style="fill:#0171ae;fill-rule:nonzero;stroke:none"
         id="path10230" />
      <path
         d="M 1490.7419,704.67557 L 1490.7419,721.95997 L 1475.7178,721.95997 C 1459.2312,721.95997 1452.3174,712.38705 1452.3174,699.62321 L 1452.3174,655.08257 L 1439.8196,655.08257 L 1439.8196,637.66519 L 1452.3174,637.66519 L 1452.3174,618.25347 L 1473.5906,611.8715 L 1473.5906,637.66519 L 1493.4014,637.66519 L 1493.4014,655.08257 L 1473.5906,655.08257 L 1473.5906,693.10831 C 1473.5906,701.08575 1476.6488,704.67557 1484.2273,704.67557 L 1490.7419,704.67557"
         style="fill:#0171ae;fill-rule:nonzero;stroke:none"
         id="path10234" />
      <path
         d="M 1197.8378,721.95997 L 1178.0271,721.95997 L 1176.2986,714.38145 C 1170.7146,719.43381 1163.1357,723.68846 1151.8344,723.68846 C 1136.2784,723.68846 1124.1793,712.65301 1124.1793,696.16637 C 1124.1793,678.61602 1138.0069,668.7772 1159.5461,667.97944 L 1174.7034,667.44759 L 1174.7034,665.58622 C 1174.7034,655.48145 1167.3904,652.9553 1158.4823,652.9553 C 1150.9038,652.9553 1134.6832,653.75305 1134.6832,653.75305 L 1134.6832,637.66519 C 1134.6832,637.66519 1149.7073,636.86743 1162.737,636.86743 C 1183.6111,636.86743 1196.2421,644.84493 1196.2421,666.91578 L 1196.2421,699.62321 C 1196.2421,711.72232 1196.508,717.97132 1197.8378,721.95997 z M 1174.7034,701.48463 L 1174.7034,682.20583 L 1162.3383,682.60471 C 1150.7711,682.87066 1145.5853,687.39117 1145.5853,694.57085 C 1145.5853,701.48463 1150.3719,706.80289 1159.2801,706.80289 C 1166.8585,706.80289 1171.9111,703.87786 1174.7034,701.48463"
         style="fill:#0171ae;fill-rule:evenodd;stroke:none"
         id="path10238" />
      <path
         d="M 1564.1344,679.8126 C 1564.1344,695.63451 1557.3533,708.13251 1544.0577,708.13251 C 1531.028,708.13251 1523.4496,696.16637 1523.4496,679.8126 C 1523.4496,664.12367 1529.9642,651.89163 1543.5258,651.89163 C 1556.6887,651.89163 1564.1344,663.59187 1564.1344,679.8126 z M 1586.0723,679.67968 C 1586.0723,650.9609 1567.4581,635.00611 1543.925,635.00611 C 1521.0565,635.00611 1501.6444,651.49275 1501.6444,680.34441 C 1501.6444,705.20742 1517.2004,724.61915 1543.659,724.61915 C 1569.7184,724.61915 1586.0723,705.07445 1586.0723,679.67968"
         style="fill:#0171ae;fill-rule:evenodd;stroke:none"
         id="path10242" />
      <path
         d="M 1427.9864,721.95997 L 1408.3089,721.95997 L 1406.4472,714.38145 C 1400.9959,719.43381 1393.2848,723.68846 1382.1163,723.68846 C 1366.5603,723.68846 1354.4612,712.65301 1354.4612,696.16637 C 1354.4612,678.61602 1368.1555,668.7772 1389.6947,667.97944 L 1404.9847,667.44759 L 1404.9847,665.58622 C 1404.9847,655.48145 1397.5391,652.9553 1388.6309,652.9553 C 1381.0525,652.9553 1364.9646,653.75305 1364.9646,653.75305 L 1364.9646,637.66519 C 1364.9646,637.66519 1379.9887,636.86743 1392.8856,636.86743 C 1413.7602,636.86743 1426.3907,644.84493 1426.3907,666.91578 L 1426.3907,699.62321 C 1426.3907,711.72232 1426.7899,717.97132 1427.9864,721.95997 z M 1404.9847,701.48463 L 1404.9847,682.20583 L 1392.6197,682.60471 C 1381.0525,682.87066 1375.8671,687.39117 1375.8671,694.57085 C 1375.8671,701.48463 1380.6538,706.80289 1389.562,706.80289 C 1397.0071,706.80289 1402.0598,703.87786 1404.9847,701.48463"
         style="fill:#0171ae;fill-rule:evenodd;stroke:none"
         id="path10246" />
      <path
         d="M 997.87009,755.99701 L 1706.5315,755.99701 L 1706.5315,759.45385 L 997.87009,759.45385 L 997.87009,755.99701 z "
         style="fill:#211d1e;fill-rule:nonzero;stroke:none"
         id="path10250" />
    </g>
  </g>
</svg>
