<svg xmlns="http://www.w3.org/2000/svg" width="195" height="40.969"><path d="M127.988 18.275h11.43l-11.43 10.9v4.694h18.485v-4.441h-11.432l11.432-10.9v-4.689h-18.485v4.436zm-8.4-4.436h-8.218a5.716 5.716 0 0 0-4.284 1.547 5.82 5.82 0 0 0-1.534 4.322v7.893a5.37 5.37 0 0 0 1.475 3.987 5.277 5.277 0 0 0 3.952 1.487h1.37a33.01 33.01 0 0 0 6.562-.78l.532-.111v2.324a1.835 1.835 0 0 1-2.008 2.024h-9.927v4.437h12.08a5.714 5.714 0 0 0 4.285-1.547 5.819 5.819 0 0 0 1.533-4.321V19.708a5.827 5.827 0 0 0-1.533-4.322 5.717 5.717 0 0 0-4.286-1.546l.001-.001zm-.146 14.33l-.366.065a27.455 27.455 0 0 1-4.772.4h-.978a1.77 1.77 0 0 1-1.291-.525 1.8 1.8 0 0 1-.521-1.3V20.3a1.835 1.835 0 0 1 2.007-2.024h3.913a1.837 1.837 0 0 1 2.008 2.024v7.869zM173.4 13.445h-3.08v4.436h.928a1.834 1.834 0 0 1 2.006 2.024v13.964h5.965V19.313a5.824 5.824 0 0 0-1.534-4.322 5.719 5.719 0 0 0-4.285-1.546zm21.6 4.83V13.84h-4.891V9.104h-5.248l-.783 4.736H181.8v4.435h2.349v10.01a5.818 5.818 0 0 0 1.534 4.321 5.712 5.712 0 0 0 4.284 1.547h5.029v-4.436h-2.877a1.836 1.836 0 0 1-2.007-2.025v-9.417H195zM91.3 14.992a5.818 5.818 0 0 0-1.534 4.321v14.551h5.964V19.905a1.834 1.834 0 0 1 2.007-2.024h5.884v-4.436h-8.036a5.714 5.714 0 0 0-4.285 1.547zm-31.2-1.547h-1.37a32.946 32.946 0 0 0-6.563.78l-.531.11v-7.2h-5.964v20.861a5.818 5.818 0 0 0 1.534 4.321 5.714 5.714 0 0 0 4.284 1.552h8.217a5.714 5.714 0 0 0 4.285-1.547 5.819 5.819 0 0 0 1.533-4.321v-9.082a5.37 5.37 0 0 0-1.474-3.987 5.275 5.275 0 0 0-3.951-1.487zm-.538 13.958a1.835 1.835 0 0 1-2.007 2.025h-3.913a1.836 1.836 0 0 1-2.007-2.024v-9.08l.391-.046c.442-.052 1.059-.131 1.852-.236.96-.116 1.927-.169 2.894-.161h.978a1.78 1.78 0 0 1 1.291.525c.341.346.529.814.521 1.3v7.7-.003zM179.215 7.13h-5.964v4.439h5.964V7.13zm-97.592 6.315H73.8a5.714 5.714 0 0 0-4.285 1.547 5.82 5.82 0 0 0-1.533 4.322v8.683a5.819 5.819 0 0 0 1.533 4.321 5.716 5.716 0 0 0 4.285 1.551h12.079v-4.441h-9.927a1.836 1.836 0 0 1-2.007-2.025v-1.234h13.5v-6.856a5.82 5.82 0 0 0-1.533-4.322 5.72 5.72 0 0 0-4.289-1.546zm-.144 8.682h-7.537V19.51a1.834 1.834 0 0 1 2.007-2.024h3.522a1.837 1.837 0 0 1 2.008 2.024v2.617zm80.829-8.682h-7.826a5.722 5.722 0 0 0-4.286 1.547 5.827 5.827 0 0 0-1.533 4.322v8.647l.012.353a5.292 5.292 0 0 0 5.805 5.551h12.08v-4.437h-9.927a1.834 1.834 0 0 1-2.007-2.024v-1.235h13.5v-6.856a5.82 5.82 0 0 0-1.534-4.322 5.722 5.722 0 0 0-4.284-1.546zm-.145 8.682h-7.536V19.51a1.835 1.835 0 0 1 2.007-2.024h3.522a1.834 1.834 0 0 1 2.007 2.024v2.617zM33.987 8.245L20.725.636a5.037 5.037 0 0 0-5.061.033L2.5 8.448A5.129 5.129 0 0 0 0 12.886l.1 15.389a5.128 5.128 0 0 0 2.559 4.4l13.262 7.609a5.037 5.037 0 0 0 5.061-.033l13.165-7.78a5.126 5.126 0 0 0 2.5-4.437l-.1-15.389a5.127 5.127 0 0 0-2.56-4.4zM3.572 10.297l13.165-7.78a2.923 2.923 0 0 1 2.937-.019l13.263 7.609a2.976 2.976 0 0 1 1.485 2.556l.078 12.243-7.606-6.29-2.914 2.928-9.88-8.192L2.19 23.869l-.07-11a2.976 2.976 0 0 1 1.452-2.572zM2.9 30.128l11.083-14.016-2.07 10.381.148.026 4.3-9.533 6.6 5.58-12.227 12.285L3.7 30.817a2.935 2.935 0 0 1-.8-.689zm30.17.5L19.9 38.407a2.926 2.926 0 0 1-2.937.019l-1.1-.632c2.156-3.643 10.443-17.83 10.443-17.83l-2.345 10.805.131.041 3.389-10.038 7.027 5.563.011 1.714a2.976 2.976 0 0 1-1.452 2.578l.003.001z"/></svg>