<svg width="517" height="99" viewBox="0 0 517 99" fill="none" xmlns="http://www.w3.org/2000/svg">
<g clip-path="url(#clip0_2001_20)">
<mask id="mask0_2001_20" style="mask-type:luminance" maskUnits="userSpaceOnUse" x="0" y="0" width="517" height="99">
<path d="M517 0H0V99H517V0Z" fill="white"/>
</mask>
<g mask="url(#mask0_2001_20)">
<path d="M100.986 71.9606L32.4363 87.5993L29.747 82.8479L91.2021 68.3864C91.3055 67.4391 91.3055 66.4832 91.2021 65.5355C90.8457 62.5449 89.8777 59.6596 88.3583 57.0581C86.8389 54.4569 84.8007 52.195 82.3697 50.413L81.1907 67.0436L28.2164 79.1706L14.9781 55.1235C12.5637 58.1477 11.0575 61.7939 10.6343 65.6389C9.08289 80.2241 24.4311 92.8056 50.7837 92.8056C64.5392 92.8056 76.7434 89.3142 84.9967 83.8395H93.0017C83.8591 91.5659 68.4692 96.6067 50.7631 96.6067C20.7078 96.6067 -1.9008 82.1455 0.126323 65.618C0.891665 59.3172 5.15276 53.636 11.7099 49.0908L1.82249 31.1589L29.2506 41.3644L30.6573 40.9926L38.9312 1.74023L64.0428 34.0923L85.1001 11.9665L82.7626 45.0211C93.4775 49.9378 100.759 57.2718 101.71 65.6802C101.915 67.8147 101.669 69.9685 100.986 72.0019V71.9606Z" fill="url(#paint0_linear_2001_20)"/>
<path fill-rule="evenodd" clip-rule="evenodd" d="M161.724 62.7712C161.724 68.8864 153.147 71.9439 135.992 71.9439C118.761 71.9439 114.024 68.8864 114.024 62.7712V28.7458C114.024 26.0806 115.659 24.1387 118.947 22.8992C122.898 21.4118 127.945 20.668 137.916 20.668C147.886 20.668 152.829 21.4118 156.801 22.8992C160.09 24.1387 161.724 26.06 161.724 28.6836V34.5304H145.383V29.2828C145.383 26.9071 144.948 25.3989 144.08 24.7378C142.073 24.1166 139.972 23.8576 137.874 23.9733C135.777 23.8625 133.676 24.1212 131.669 24.7378C130.697 25.3989 130.221 26.9071 130.221 29.2828V62.0895C130.073 63.8542 130.277 65.6307 130.821 67.3162C131.441 68.2459 134.958 68.7002 137.771 68.7002C140.584 68.7002 143.976 68.2459 144.618 67.3162C145.183 65.6354 145.394 63.8558 145.238 62.0895V56.1396H161.579V62.7506L161.724 62.7712ZM203.652 46.7602V35.2325C203.836 33.5104 203.558 31.7705 202.846 30.1917C202.308 29.51 198.709 29.1588 196.247 29.1588C193.786 29.1588 190.207 29.51 189.669 30.1917C188.957 31.7705 188.679 33.5104 188.863 35.2325V46.7602H203.652ZM196.247 26.6175C211.368 26.6175 216.932 29.386 216.932 34.8813V69.4645H203.611V50.231H188.945V69.4645H175.603V34.9019C175.603 29.386 181.147 26.6381 196.288 26.6381L196.247 26.6175ZM251.455 70.1665C266.659 70.1665 272.347 67.8736 272.347 63.3078V52.462C272.347 49.9414 269.844 47.8756 264.755 46.45C260.953 45.2205 257.059 44.2945 253.11 43.6816C248.228 42.8555 243.864 41.9669 243.864 40.9959V31.7614C243.822 31.3398 243.91 30.9158 244.117 30.5465C244.324 30.1766 244.64 29.8799 245.022 29.6956C247.062 29.2727 249.145 29.0923 251.228 29.1585C253.319 29.0576 255.413 29.2875 257.433 29.8403C257.936 30.4464 258.306 31.1515 258.52 31.9091C258.734 32.667 258.786 33.4612 258.674 34.2405V38.3724H272.161V33.6622C272.161 31.3481 270.713 29.6956 267.838 28.6624C264.321 27.2578 260.081 26.5966 251.29 26.5966C236.231 26.5966 230.605 28.3734 230.605 31.9061V39.4468C230.605 41.8019 233.004 43.6609 237.844 45.004C241.638 46.1233 245.5 46.9928 249.407 47.6069C254.227 48.5367 256.647 49.6108 256.647 50.8505V62.2336C256.647 64.5475 256.275 66.014 255.53 66.6342C254.277 67.3544 252.833 67.6717 251.393 67.543C249.959 67.7045 248.511 67.408 247.256 66.6958C246.212 65.1657 245.77 63.3047 246.015 61.4694V56.7589H230.77V62.2336C230.77 67.5224 236.252 70.1665 251.455 70.1665ZM319.613 50.2516H300.418V65.8699H323.315V69.5057H286.082V26.6175H323.232V30.233H300.418V46.7189H319.613V50.2516ZM390.665 69.4653H403.986V27.2173H390.665V69.4653ZM459.112 69.4647H445.668V35.4805C445.836 33.836 445.621 32.1753 445.046 30.6257C444.488 29.8614 440.91 29.4687 438.427 29.4687C435.944 29.4687 432.347 29.8199 431.745 30.5432C430.977 32.1195 430.669 33.8814 430.856 35.6252V69.4647H417.535V35.15C417.535 29.5515 423.203 26.7417 438.427 26.7417C453.651 26.7417 459.112 29.5515 459.112 35.15V69.4647ZM516.307 46.9252H491.235V50.3753H501.144V62.254C501.251 63.0476 501.187 63.8545 500.965 64.6228C500.739 65.3914 500.357 66.1045 499.84 66.7164C497.846 67.4006 495.74 67.6882 493.636 67.5637C491.532 67.6717 489.426 67.3846 487.429 66.7164C486.541 66.0553 486.107 64.5887 486.107 62.3367V35.6452C485.909 33.91 486.233 32.1558 487.036 30.6045C487.657 29.8609 491.07 29.4888 493.655 29.4888C496.24 29.4888 499.799 29.8609 500.379 30.6457C500.934 32.1932 501.138 33.844 500.979 35.48V41.6776H516.326V35.48C516.326 29.9021 508.714 27.0924 493.573 27.0924C478.431 27.0924 472.763 29.9021 472.763 35.48V62.7088C472.788 63.9364 473.214 65.1222 473.982 66.0822C474.749 67.0423 475.81 67.7226 477.004 68.018C480.48 69.3817 484.72 70.0838 493.553 70.0838C502.474 70.0838 508.681 69.3952 512.168 68.018C513.337 67.7124 514.371 67.0346 515.119 66.0875C515.864 65.1404 516.282 63.976 516.307 62.7707V46.9252ZM377.198 69.506H361.625V48.2479C361.625 47.0291 359.224 45.9341 354.384 45.0249C352.171 44.6119 350.372 44.2607 348.903 43.9511V69.506H335.582V20.668H348.881V38.3936L366.96 22.4653H376.123L356.183 40.7487L358.251 41.0999C362.197 41.7032 366.086 42.6291 369.878 43.8683C374.814 45.3555 377.281 47.3525 377.281 49.8592V69.506H377.198Z" fill="white"/>
</g>
</g>
<defs>
<linearGradient id="paint0_linear_2001_20" x1="50.8871" y1="84.48" x2="48.5444" y2="-13.0342" gradientUnits="userSpaceOnUse">
<stop offset="0.28" stop-color="#F5AC03"/>
<stop offset="0.34" stop-color="#F6B219"/>
<stop offset="0.44" stop-color="#F7BA34"/>
<stop offset="0.54" stop-color="#F8C049"/>
<stop offset="0.66" stop-color="#F9C458"/>
<stop offset="0.8" stop-color="#F9C661"/>
<stop offset="1" stop-color="#F9C764"/>
</linearGradient>
<clipPath id="clip0_2001_20">
<rect width="517" height="99" fill="white"/>
</clipPath>
</defs>
</svg>
