<?xml version="1.0" encoding="UTF-8"?>
<svg width="243.4" height="52.42" inkscape:version="1.0.2 (e86c870879, 2021-01-15, custom)" sodipodi:docname="Cushman_&amp;_Wakefield_logo.svg" version="1.1" viewBox="0 0 64.4 13.87" xmlns="http://www.w3.org/2000/svg" xmlns:cc="http://creativecommons.org/ns#" xmlns:dc="http://purl.org/dc/elements/1.1/" xmlns:inkscape="http://www.inkscape.org/namespaces/inkscape" xmlns:rdf="http://www.w3.org/1999/02/22-rdf-syntax-ns#" xmlns:sodipodi="http://sodipodi.sourceforge.net/DTD/sodipodi-0.dtd">
 <sodipodi:namedview id="cvfa" bordercolor="#666666" borderopacity="1.0" fit-margin-bottom="0" fit-margin-left="0" fit-margin-right="0" fit-margin-top="0" inkscape:current-layer="layer1" inkscape:cx="120.70619" inkscape:cy="25.211606" inkscape:document-rotation="0" inkscape:document-units="mm" inkscape:pageopacity="0.0" inkscape:pageshadow="2" inkscape:window-height="1014" inkscape:window-maximized="1" inkscape:window-width="1920" inkscape:window-x="0" inkscape:window-y="36" inkscape:zoom="3.715634" pagecolor="#ffffff" showgrid="false" units="px"/>
 <title>Cushman and Wakefield logo</title>
 <metadata>
  <rdf:RDF>
   <cc:Work rdf:about="">
    <dc:format>image/svg+xml</dc:format>
    <dc:type rdf:resource="http://purl.org/dc/dcmitype/StillImage"/>
    <dc:title/>
   </cc:Work>
  </rdf:RDF>
 </metadata>
 <g transform="translate(-132.9 -170.4)" inkscape:groupmode="layer" inkscape:label="Layer 1">
  <g transform="translate(.2646 -.2646)">
   <path d="m142.3 170.9v13.34h3.953v-10.38z" style="fill:#eb0029" inkscape:connector-curvature="0"/>
   <path d="m140.7 172.1v12.17h0.8219v-12.79z" style="fill:#eb0029" inkscape:connector-curvature="0"/>
   <path d="m139.1 184.2h0.8219v-11.59l-0.8219 0.5851z" style="fill:#eb0029" inkscape:connector-curvature="0"/>
   <path d="m137.6 184.2h0.8219v-10.42l-0.8219 0.6242z" style="fill:#eb0029" inkscape:connector-curvature="0"/>
   <path d="m147 176.9v7.373h3.954v-4.408z" style="fill:#eb0029" inkscape:connector-curvature="0"/>
   <path d="m136 178v6.202h0.8219v-6.788z" style="fill:#eb0029" inkscape:connector-curvature="0"/>
   <path d="m134.4 184.2h0.8219v-5.617l-0.8219 0.5852z" style="fill:#eb0029" inkscape:connector-curvature="0"/>
   <path d="m132.9 184.2h0.8219v-4.447l-0.8219 0.6242z" style="fill:#eb0029" inkscape:connector-curvature="0"/>
   <path d="m161.1 178.3c-1.173 0-1.917-0.6631-1.917-1.95v-2.497h0.9775v2.497c0 0.7021 0.3527 1.092 0.9788 1.092 0.5865 0 0.9392-0.3901 0.9392-1.092v-2.497h0.9788v2.458c0 1.365-0.7833 1.989-1.958 1.989z" style="fill:#717271" inkscape:connector-curvature="0"/>
   <path d="m165.9 178.3c-0.6644 0-1.33-0.2341-1.839-0.7021l0.5482-0.6631c0.391 0.312 0.8216 0.507 1.33 0.507 0.391 0 0.6261-0.156 0.6261-0.3901v-0.039c0-0.2341-0.1559-0.3511-0.8995-0.5461-0.8612-0.2341-1.449-0.5071-1.449-1.365 0-0.8193 0.6261-1.326 1.527-1.326 0.6657 0 1.213 0.195 1.643 0.5461-0.5086 0.7411-0.5086 0.7411-0.5086 0.7411-0.3514-0.273-0.7437-0.4291-1.135-0.4291-0.3527 0-0.5482 0.156-0.5482 0.3901 0 0.273 0.1955 0.3901 0.9392 0.5851 0.9009 0.2341 1.409 0.5462 1.409 1.326 0 0.8971-0.6657 1.365-1.645 1.365z" style="fill:#717271" inkscape:connector-curvature="0"/>
   <path d="m171.6 178.3v-1.794h-1.8v1.794h-0.9775v-4.408h0.9775v1.716h1.8v-1.716h0.9788v4.408z" style="fill:#717271" inkscape:connector-curvature="0"/>
   <path d="m188.5 178.3-2.074-2.77v2.77h-0.9392v-4.408h0.8996l2.075 2.809v-2.809h0.9392v4.408z" style="fill:#717271" inkscape:connector-curvature="0"/>
   <path d="m169.5 184.2-1.37-1.872-0.5086 0.5461v1.326h-0.9788v-4.408h0.9788v1.95l1.8-1.95h1.173l-1.8 1.873 1.88 2.536z" style="fill:#717271" inkscape:connector-curvature="0"/>
   <path d="m171.8 184.2v-4.408h3.288v0.8582h-2.349v0.8972h2.075v0.8581h-2.075v0.9363h2.388v0.8582z" style="fill:#717271" inkscape:connector-curvature="0"/>
   <path d="m181.2 184.2h0.9393v-4.408h-0.9393z" style="fill:#717271" inkscape:connector-curvature="0"/>
   <path d="m183.5 184.2v-4.408h3.288v0.8582h-2.309v0.8972h2.034v0.8581h-2.034v0.9363h2.347v0.8582z" style="fill:#717271" inkscape:connector-curvature="0"/>
   <path d="m188.3 184.2v-4.408h0.9775v3.55h2.193v0.8582z" style="fill:#717271" inkscape:connector-curvature="0"/>
   <path d="m194.4 184.2h-1.722v-4.408h1.722c1.409 0 2.349 0.9753 2.349 2.185v0.039c0 1.248-0.9392 2.185-2.349 2.185zm1.331-2.185c0-0.7802-0.5482-1.326-1.331-1.326h-0.7437v2.653h0.7437c0.7833 0 1.331-0.5462 1.331-1.326z" style="fill:#717271" inkscape:connector-curvature="0"/>
   <path d="m156.3 177.4c-0.8229 0-1.37-0.624-1.37-1.365v-0.039c0-0.7412 0.5086-1.365 1.291-1.365 0.4306-0.039 0.8229 0.1561 1.096 0.4682l0.6261-0.7412c-0.4306-0.3901-1.017-0.6631-1.722-0.624-1.37 0-2.347 1.053-2.309 2.301 0.0396 1.287 1.018 2.262 2.388 2.223 0.704 0 1.33-0.312 1.721-0.7802l-0.6644-0.6242c-0.2351 0.3122-0.6261 0.5071-1.057 0.5461z" style="fill:#717271" inkscape:connector-curvature="0"/>
   <path d="m177.6 173.9h1.057v4.408h-0.9392v-2.887l-1.252 1.872h-0.0383l-1.254-1.872v2.887h-0.8996v-4.408h1.017l1.174 1.833z" style="fill:#717271" inkscape:connector-curvature="0"/>
   <path d="m181.5 173.9-1.88 4.408h1.018l0.391-1.014h1.878l0.3923 1.014h1.017l-1.878-4.408zm-0.1176 2.536 0.5865-1.404 0.5878 1.404z" style="fill:#717271" inkscape:connector-curvature="0"/>
   <path d="m162.8 179.8-1.878 4.408h0.9788l0.4306-0.9752h1.84l0.4293 0.9752h0.9788l-1.878-4.408zm-0.1559 2.575 0.5865-1.443 0.5878 1.443z" style="fill:#717271" inkscape:connector-curvature="0"/>
   <path d="m177.4 180.7v0.9362h2.074v0.8972h-2.074v1.677h-0.9788v-4.408h3.366v0.8972z" style="fill:#717271" inkscape:connector-curvature="0"/>
   <path d="m159.8 179.8-1.017 3.082-1.017-3.082h-0.9405l-1.017 3.082-1.017-3.082h-1.057l1.604 4.408h0.9788l0.9788-3.004 1.017 3.004h0.9392l1.605-4.408z" style="fill:#717271" inkscape:connector-curvature="0"/>
   <path d="m195.6 177.2c0.5086-0.5851 0.5086-0.5851 0.5086-0.5851-0.5865-0.6242-0.5865-0.6242-0.5865-0.6242-0.4702 0.5071-0.4702 0.5071-0.4702 0.5071l-0.5482-0.6631c0.3527-0.1951 0.5878-0.5852 0.5878-0.9752-0.0396-0.6242-0.5086-1.053-1.135-1.053-0.3131 0-0.5878 0.1169-0.7833 0.312-0.1955 0.195-0.3131 0.468-0.3131 0.7802 0.0396 0.351 0.2351 0.6242 0.391 0.8192-0.5086 0.1951-0.8995 0.7412-0.8612 1.287 0.0396 0.7411 0.6658 1.365 1.449 1.365 0.4306 0 0.8995-0.2341 1.213-0.5851 0.3923 0.5071 0.3923 0.5071 0.3923 0.5071h1.135zm-1.057-0.039c-0.2351 0.273-0.4689 0.3901-0.704 0.3901-0.3131 0-0.5878-0.2341-0.5878-0.5851-0.0383-0.1951 0.1176-0.4682 0.5482-0.6633zm-0.5482-1.833c-0.1176-0.117-0.2734-0.273-0.3131-0.4291 0-0.156 0.0779-0.3122 0.3131-0.3511 0.1955 0 0.3131 0.156 0.3131 0.3511 0 0.195-0.1955 0.351-0.3131 0.4291z" style="fill:#717271" inkscape:connector-curvature="0"/>
  </g>
 </g>
</svg>
