<?xml version="1.0" encoding="UTF-8"?> <svg xmlns="http://www.w3.org/2000/svg" xmlns:xlink="http://www.w3.org/1999/xlink" version="1.1" id="Ebene_1" x="0px" y="0px" viewBox="0 0 467.79 101" style="enable-background:new 0 0 467.79 101;" xml:space="preserve"> <style type="text/css"> .st0{fill:#FFFFFF;} .st1{fill:#1E5C93;} .st2{fill:#B66638;} .st3{fill:#5B381C;} </style> <g> <ellipse class="st0" cx="269.27" cy="50.5" rx="47.94" ry="50.5"></ellipse> <g> <path class="st1" d="M0,87.26c4.4-0.47,7.23-1.52,8.47-3.15c1.25-1.62,1.87-5.39,1.87-11.29v-49.4l-1.46-1.8 C7.33,19.68,6,18.49,4.91,18.03C3.82,17.58,2.18,17.31,0,17.24v-2.08h18.16L59.25,68.8V31.54c0-6.13-0.87-10.12-2.6-11.96 c-1.14-1.2-3.67-1.98-7.59-2.34v-2.08h25v2.08c-4.05,0.44-6.76,1.48-8.11,3.12c-1.35,1.64-2.03,5.4-2.03,11.28v59.01h-1.82 L15.02,29.17v43.64c0,6.13,0.85,10.12,2.55,11.98c1.11,1.2,3.59,2.02,7.43,2.46v2.08H0V87.26z"></path> <path class="st1" d="M89.55,23.48c6.55-6.61,14.6-9.91,24.17-9.91c9.6,0,17.67,3.32,24.22,9.96c7.1,7.19,10.66,16.77,10.66,28.74 c0,12.15-3.67,21.83-11.02,29.02c-6.58,6.42-14.54,9.63-23.86,9.63c-9.98,0-18.26-3.56-24.85-10.68 c-6.69-7.26-10.03-16.59-10.03-27.97C78.85,40.3,82.41,30.7,89.55,23.48z M97.51,78.42c4.41,5.64,9.82,8.46,16.24,8.46 c6.28,0,11.65-2.75,16.11-8.24c4.46-5.49,6.69-14.28,6.69-26.36c0-12.22-2.25-21.06-6.77-26.5c-4.51-5.44-9.85-8.16-16.03-8.16 c-6.38,0-11.78,2.82-16.21,8.46c-4.42,5.64-6.64,14.37-6.64,26.2C90.9,64.06,93.11,72.77,97.51,78.42z"></path> <path class="st1" d="M153.75,87.26c4.09-0.4,6.64-1.23,7.64-2.5c1-1.27,1.51-4.23,1.51-8.88V27.31c0-3.94-0.57-6.52-1.69-7.75 s-3.61-2-7.46-2.33v-2.08h29.47c6.14,0,11.25,0.82,15.33,2.46c7.76,3.1,11.64,8.8,11.64,17.11c0,5.58-1.72,9.86-5.17,12.85 c-3.45,2.99-8.14,4.96-14.06,5.91l21.93,28.46c1.35,1.74,2.7,3.01,4.05,3.8c1.35,0.8,3.09,1.3,5.2,1.52v2.08H205l-26.63-34.55 l-4.67,0.27v22.1c0,4.15,0.6,6.78,1.79,7.88c1.2,1.11,3.8,1.85,7.82,2.21v2.08h-29.58V87.26z M190.13,48.39 c5.65-2.44,8.47-7.03,8.47-13.77c0-6.48-2.53-10.91-7.59-13.28c-2.7-1.27-6.29-1.91-10.76-1.91c-3.01,0-4.86,0.23-5.53,0.68 c-0.68,0.46-1.01,1.52-1.01,3.2v27.6C181.36,50.61,186.84,49.78,190.13,48.39z"></path> <path class="st1" d="M317.23,89.34v-2.08c2.74-0.33,4.79-1.41,6.16-3.25c1.37-1.85,3.72-6.89,7.04-15.14l22.18-55.02h2.12 l26.52,63.56c1.77,4.21,3.18,6.81,4.24,7.81s2.83,1.68,5.33,2.04v2.08h-27.07v-2.08c3.11-0.29,5.12-0.64,6.02-1.06 c0.9-0.42,1.35-1.44,1.35-3.08c0-0.54-0.17-1.51-0.52-2.89c-0.34-1.38-0.83-2.83-1.46-4.36l-4.26-10.78h-28.05 c-2.77,7.34-4.41,11.81-4.95,13.43c-0.54,1.62-0.8,2.9-0.8,3.84c0,1.89,0.73,3.2,2.18,3.92c0.9,0.43,2.59,0.76,5.08,0.98v2.08 H317.23z M363.07,60.54l-12.2-30.88l-12.26,30.88H363.07z"></path> <path class="st1" d="M393.72,87.26c4.4-0.47,7.23-1.52,8.47-3.15c1.25-1.62,1.87-5.39,1.87-11.29v-49.4l-1.46-1.8 c-1.56-1.93-2.89-3.13-3.98-3.58c-1.09-0.46-2.73-0.72-4.91-0.79v-2.08h18.16l41.09,53.64V31.54c0-6.13-0.87-10.12-2.6-11.96 c-1.14-1.2-3.67-1.98-7.59-2.34v-2.08h25v2.08c-4.05,0.44-6.76,1.48-8.11,3.12c-1.35,1.64-2.03,5.4-2.03,11.28v59.01h-1.82 l-47.09-61.48v43.64c0,6.13,0.85,10.12,2.55,11.98c1.11,1.2,3.59,2.02,7.43,2.46v2.08h-25V87.26z"></path> </g> <g> <path class="st2" d="M311.5,50.13c0-15.79-7.83-29.65-19.61-37.53v15.84h-2.77c-1.59-6.83-4.41-12.19-8.45-16.11 c-4.05-3.92-8.73-5.87-14.05-5.87c-5.07,0-8.79,1.44-11.16,4.34c-2.37,2.89-3.55,6.05-3.55,9.49c0,4.15,1.48,7.66,4.45,10.52 c2.93,2.91,8.23,6.17,15.91,9.78c7.34,3.42,12.68,6.19,16.01,8.28c3.33,2.1,6,5,8.02,8.71c2.01,3.71,3.02,7.99,3.02,12.85 c0,5.68-1.34,10.58-4,14.7C305.16,76.99,311.5,64.35,311.5,50.13z"></path> </g> <g> <path class="st3" d="M246.06,64.93c3.56,18.85,12.01,28.27,25.34,28.27c5.99,0,10.64-1.8,13.92-5.41 c3.29-3.6,4.93-7.64,4.93-12.11c0-4.51-1.44-8.29-4.34-11.34c-2.89-3.01-8.17-6.24-15.84-9.68c-6.83-3.09-11.99-5.8-15.47-8.11 c-3.48-2.32-6.19-5.33-8.14-9.04c-1.95-3.71-2.92-7.66-2.92-11.86c0-5.41,1.52-10.05,4.53-13.93 c-12.53,7.71-20.96,22.01-20.96,38.4c0,14.02,6.17,26.52,15.8,34.67V64.93H246.06z"></path> </g> </g> </svg> 